# xmcd CD database file
#
# Track frame offsets:
#	225
#	19614
#	38966
#	59455
#	76984
#	94478
#	107126
#	125435
#	146523
#	167079
#	187326
#	201745
#	223800
#	244297
#	269233
#
# Disc length: 3872 seconds
#
# Revision: 1
# Processed by: cddbd v1.5.2PL0 Copyright (c) Steve Scherf et al.
# Submitted via: CDex 1.70beta2
#
DISCID=f50f1d0f
DTITLE=Poduene Blues Band - Den sled den
DYEAR=1998
DGENRE=Blues
TTITLE0=Den sled den
TTITLE1=Ako se byah rodil...
TTITLE2=Tarataika
TTITLE3=Predpazlivo
TTITLE4=Blues bus(Rossinant)
TTITLE5=Svetska hronika
TTITLE6=Pilencata
TTITLE7=Dobro utro, malka uchenichke
TTITLE8=Lubov i pari
TTITLE9=Vyrtiat se kolelata
TTITLE10=Psychothriller
TTITLE11=Karai da varvi
TTITLE12=Njama bira
TTITLE13=Kucheto na krainija kvartal
TTITLE14=Neka byde svetlina
EXTD=ГЏГ®Г¤ГіГҐГ­ГҐ ГЎГ«ГіГ± ГЎГҐГ­Г¤\n YEAR: 1998
EXTT0=
EXTT1=
EXTT2=
EXTT3=
EXTT4=
EXTT5=
EXTT6=
EXTT7=
EXTT8=
EXTT9=
EXTT10=
EXTT11=
EXTT12=
EXTT13=
EXTT14=
PLAYORDER=
